<?xml version="1.0" encoding="UTF-8"?>
<svg viewBox="0 0 78 17" version="1.1" xmlns="http://www.w3.org/2000/svg" xmlns:xlink="http://www.w3.org/1999/xlink">
    <title>PT logo</title>
    <g id="symbols" stroke="none" stroke-width="1" fill="none" fill-rule="evenodd">
        <g id="PT-logo">
            <g transform="translate(0.000000, 0.000000)">
                <path d="M17.7826806,5.94103194 C17.7826806,5.91503993 17.7826806,5.88533477 17.7530428,5.85562961 C17.0120978,4.1290172 14.2039162,3.60546376 10.9659864,4.39636364 L10.4250965,4.08445946 C11.8407152,3.44453179 13.3811691,3.12990499 14.933747,3.16359951 C16.9194797,3.30841216 17.8901177,4.3852242 17.7826806,5.94103194 Z M14.892995,9.55763514 C12.818349,12.0788606 9.0654624,13.8203256 6.51290678,13.6420946 C3.96035117,13.4638636 3.57876448,11.2656818 5.65711528,8.74816953 C5.69416253,8.6961855 5.74232396,8.64791462 5.78307593,8.59593059 L5.78307593,11.7521038 C5.76230128,12.0940142 5.92958967,12.4199746 6.21919042,12.6018702 C6.50879117,12.7837658 6.87441117,12.7925203 7.17234786,12.6246929 L14.8189005,8.16891892 C15.0713427,8.00240872 15.2195745,7.71660084 15.2105125,7.4138465 C15.2014505,7.11109216 15.036391,6.83470438 14.7744438,6.68366093 L11.6809983,4.98675369 C12.4421662,4.75208231 13.237928,4.65034499 14.0334988,4.68598894 C16.5823497,4.84936732 16.9676411,7.05497543 14.892995,9.55763514 Z M5.18661519,14.9973925 C2.8452289,14.8265878 1.90793344,13.3673219 2.51921309,11.3510842 C2.51165008,11.6784694 2.57352478,12.0037335 2.70074462,12.3053624 C3.61581173,14.4478471 7.7243519,14.7411855 11.8773488,12.9588759 L12.1329748,12.8474816 C9.79899798,14.2807555 7.20198566,15.138492 5.18661519,14.9973925 Z M7.88365508,3.77998157 L13.0072899,6.85817875 C13.1909067,6.96184258 13.3063152,7.15492729 13.3108789,7.36609973 C13.3154427,7.57727218 13.2084843,7.77518444 13.0295183,7.8867199 L7.84290311,10.8980805 C7.64112717,11.0063089 7.3969409,10.9977761 7.2031754,10.8757257 C7.0094099,10.7536754 6.89582726,10.5368544 6.90560765,10.3076904 L6.89078875,4.33324017 C6.89889832,4.10036033 7.02809544,3.88874474 7.23129533,3.77551491 C7.43449522,3.66228508 7.68201762,3.66397985 7.88365508,3.77998157 Z M19.7387755,4.89392506 C18.6681099,2.37641278 14.2076209,1.82315418 9.36554514,3.45322482 L7.24273764,2.16847666 C6.94451752,1.98600565 6.57164463,1.9775495 6.26549514,2.14631441 C5.95934565,2.31507932 5.76679427,2.63522558 5.76084758,2.98536855 L5.76084758,5.06101658 C1.62266961,7.42628993 -0.792811179,10.8535227 0.237102409,13.2633538 C1.42631918,16.0407862 6.75741864,16.4232402 12.1403843,14.1099509 C17.5233499,11.7966615 20.931697,7.67135749 19.7424802,4.89021192 L19.7387755,4.89392506 Z" id="Shape" fill="#FFFFFF" fill-rule="nonzero"></path>
                <path d="M24.0251425,8.5142414 L23.5583471,10.1480252 C23.4916621,10.3968059 23.4360912,10.6233077 23.3953392,10.8163913 C23.3625652,10.9615251 23.343954,11.1095099 23.3397683,11.2582555 C23.3300927,11.4109707 23.3852623,11.5606716 23.4916621,11.6704146 C23.6076662,11.773339 23.7592649,11.8266524 23.9140007,11.8189404 C24.2450644,11.7900747 24.5513337,11.6312535 24.7660875,11.3770762 C25.1127284,11.002478 25.397836,10.5750979 25.6107648,10.1108937 C25.9307859,9.43573961 26.1983211,8.73682919 26.4109855,8.02039312 C26.5826494,7.49898689 26.6847966,6.95712575 26.7147729,6.40888821 C26.7277632,6.17283096 26.6654839,5.9387528 26.5369461,5.74052211 C26.441414,5.58354942 26.2721114,5.48678553 26.0886744,5.48431511 C25.6166898,5.527411 25.19848,5.8068512 24.9772568,6.2269441 C24.5432913,6.93518969 24.2220678,7.70687602 24.0251425,8.5142414 L24.0251425,8.5142414 Z M21.1169333,4.71940725 C21.8393547,4.66742322 22.5247288,4.59316032 23.1804652,4.51518428 C23.8362015,4.43720823 24.4660048,4.34066646 25.0772844,4.22555897 L24.5475087,5.97816339 C24.9548679,5.40328368 25.4558227,4.90119037 26.0293988,4.49290541 C26.4488201,4.19187493 26.950972,4.02843434 27.4668321,4.02504914 C28.058562,3.98964182 28.6362586,4.21473687 29.0487498,4.6414312 C29.4493283,5.13659657 29.6478872,5.76546864 29.6044585,6.40146192 C29.5989025,7.09122914 29.4735388,7.77475741 29.233986,8.42141278 C28.9736697,9.12950552 28.610388,9.79515895 28.155911,10.3968059 C27.7053762,11.0349116 27.1322984,11.57647 26.4702611,11.9897451 C25.8945035,12.3382635 25.2349418,12.5231038 24.5623276,12.524438 C24.2982923,12.5272591 24.0355488,12.487131 23.7843354,12.4056173 C23.5485087,12.3286452 23.3269585,12.2132274 23.128599,12.064008 L22.5988233,13.9651382 C22.5591527,14.0856137 22.5330573,14.2101601 22.5210241,14.3364527 C22.499991,14.459041 22.491303,14.5834375 22.495091,14.7077672 C22.4744362,14.894919 22.5549248,15.0789067 22.7062603,15.190476 C22.976393,15.3115264 23.269917,15.3711255 23.5657566,15.3649939 L23.5657566,15.8105713 L18.6681099,15.8105713 L18.6681099,15.3130098 L18.7422044,15.3130098 L18.8125942,15.3130098 C19.061015,15.3328963 19.3068948,15.2511966 19.4942637,15.086508 C19.7344425,14.7289157 19.8949182,14.3236486 19.9647637,13.8983016 L21.9134492,6.31234644 C21.9467917,6.18981265 21.9727248,6.06727887 21.9949531,5.94103194 C22.0113057,5.8515081 22.0212105,5.76092104 22.0245909,5.66997236 C22.0422681,5.50420842 21.9684276,5.34195955 21.8319452,5.24667383 C21.5995573,5.14274383 21.3443821,5.10054424 21.0910002,5.12414005 L21.1169333,4.71940725 Z" id="Shape" fill="#FFFFFF" fill-rule="nonzero"></path>
                <path d="M30.0749586,0.5532586 C30.8159037,0.497561425 31.5049825,0.419585381 32.1829472,0.326756757 C32.8609119,0.233928133 33.4944199,0.129960074 34.0834712,0 L31.4086597,10.1331726 C31.4086597,10.1888698 31.3716124,10.2557064 31.3493841,10.3448219 C31.3247286,10.4283724 31.3085922,10.5142141 31.3012227,10.6010289 C31.2946833,10.7001567 31.3192998,10.7988465 31.3716124,10.8832279 C31.4256287,10.9501156 31.5081243,10.987323 31.5938959,10.9834828 C31.724823,10.9649772 31.8432451,10.8956295 31.9236165,10.7903993 C32.1942934,10.4731724 32.4419109,10.1368882 32.6645615,9.78413698 L33.0943096,10.0960412 C32.6809816,10.794261 32.1580861,11.4211557 31.5457345,11.9526136 C31.1177481,12.3237787 30.5740891,12.5338586 30.0082736,12.5467168 C29.6113858,12.5739955 29.2202219,12.4401891 28.9227891,12.1754023 C28.6575245,11.8808892 28.5237108,11.4906062 28.5523166,11.0948771 C28.6314838,10.4746772 28.7628524,9.86230067 28.9450175,9.26429668 L28.9709505,9.16404177 L30.7492186,2.56578317 L30.8159037,2.29472359 C30.8964871,2.02329715 30.95107,1.74478912 30.9789116,1.46297912 C30.9899969,1.31538378 30.9205468,1.17332693 30.79738,1.09166462 C30.6256991,1.00030847 30.431862,0.959137058 30.2379665,0.97284398 L30.0860728,0.97284398 L30.0749586,0.5532586 Z" id="Path" fill="#FFFFFF" fill-rule="nonzero"></path>
                <path d="M38.48098,5.79993243 C38.4926208,5.59403139 38.4352434,5.39014037 38.3179721,5.22068182 C38.2166109,5.08102356 38.0530543,5.00044863 37.8808145,5.00531941 C37.5929838,5.02014186 37.324399,5.15473946 37.1398695,5.37663391 C36.8134915,5.74024266 36.5334891,6.14311518 36.3063063,6.57597973 C35.9636491,7.2026048 35.6808331,7.8602789 35.461629,8.54023342 C35.2695239,9.07211705 35.1620102,9.63095517 35.1430226,10.1962961 C35.1320769,10.426957 35.1929236,10.6553263 35.3171447,10.8498096 C35.4271259,10.9993139 35.6023371,11.0864272 35.7876448,11.0837982 C36.1409194,11.0543715 36.4646624,10.8745562 36.6767788,10.5898894 C37.0372493,10.1717572 37.3297987,9.69935641 37.5436845,9.19003378 C37.8144333,8.5546879 38.0433812,7.90225396 38.2290587,7.23691953 C38.3712543,6.77002931 38.455858,6.28744051 38.48098,5.79993243 Z M41.7226145,4.31467445 L40.2888858,9.323707 L40.2888858,9.34227273 C40.1457158,9.78373306 40.0367208,10.2356006 39.96287,10.6938575 C39.9564875,10.7953197 39.9810365,10.8963288 40.0332598,10.9834828 C40.072182,11.05281 40.1466026,11.0944081 40.2259055,11.091164 C40.4555985,11.091164 40.7593859,10.8238176 41.122449,10.2891247 C41.2335907,10.1368857 41.3150947,10.0180651 41.3743703,9.9178102 L41.7892995,10.2297144 C41.4301587,10.8883285 40.9529126,11.4749131 40.381504,11.9600399 C39.9473033,12.3153959 39.4046046,12.5106872 38.844043,12.5132985 C38.475302,12.5394333 38.1088707,12.437124 37.80672,12.2236732 C37.5548474,12.0141738 37.4173251,11.6971538 37.4362475,11.3696499 C37.4366546,11.2279079 37.4478009,11.0864015 37.46959,10.9463514 C37.4918183,10.7755467 37.5288656,10.552758 37.577027,10.2816984 C37.2310802,10.9354643 36.7498535,11.5076659 36.1655268,11.9600399 C35.6738504,12.3249628 35.0768392,12.5192042 34.4650579,12.5132985 C33.8984515,12.5432364 33.3451246,12.3345942 32.9387112,11.9377611 C32.5454816,11.5054311 32.3425109,10.9326095 32.3755929,10.348535 C32.3900795,9.50594367 32.5740472,8.67494478 32.9164828,7.90528563 C33.2603267,7.07176844 33.7509921,6.30705598 34.3650303,5.64769349 C34.7884278,5.16444565 35.289259,4.75534056 35.8469204,4.43720823 C36.2979178,4.17441736 36.8073498,4.02889929 37.3288104,4.01390971 C37.7123514,3.99336299 38.0913925,4.10471373 38.4031807,4.32952703 C38.6871939,4.58072191 38.8713376,4.92611699 38.9218423,5.30237101 L39.1848777,4.29982187 L41.7226145,4.31467445 Z" id="Shape" fill="#FFFFFF" fill-rule="nonzero"></path>
                <path d="M40.8853466,5.00531941 L40.8853466,4.54488943 C41.5855396,4.47062654 42.2931421,4.37779791 43.0118588,4.27382985 C43.7305755,4.16986179 44.1232763,4.12159091 44.1714378,4.12159091 C44.4567016,4.12159091 44.8345836,5.32464988 45.2828553,7.74190725 C45.4680916,8.70237408 45.6199853,9.47470823 45.7385365,10.0589097 C46.2831311,9.00808968 46.6536036,8.23946867 46.849954,7.76047297 C47.0116048,7.42827494 47.113205,7.0699802 47.1500368,6.70222666 C47.1500368,6.52770885 46.9796194,6.33091216 46.6461942,6.07099201 C46.3514338,5.89067965 46.1632757,5.5772945 46.1423515,5.23182125 C46.1335442,4.90083575 46.2687558,4.58236649 46.512824,4.35923219 C46.7660928,4.13114326 47.0989065,4.01239232 47.4390053,4.02876229 C47.7704662,4.01075048 48.0947117,4.13026883 48.3355488,4.35923219 C48.5593703,4.61170369 48.6739742,4.94294036 48.6541552,5.28009214 C48.6541552,5.77394042 48.4059386,6.57226658 47.9132101,7.66764435 C47.317225,8.9473122 46.6403541,10.1875484 45.8867255,11.3807893 C45.1601883,12.6375914 44.2693452,13.7914512 43.237847,14.8117353 C42.4450359,15.5320854 41.6806276,15.8922604 40.9446222,15.8922604 C40.5381917,15.9157835 40.1351381,15.8063207 39.7961574,15.5803563 C39.5225829,15.3823454 39.3655618,15.0606259 39.3775234,14.7226198 C39.3714326,14.4092445 39.5077323,14.11007 39.747996,13.909441 C40.001179,13.6894719 40.3282254,13.5740156 40.6630631,13.5863974 C41.000971,13.6025473 41.3267838,13.7174218 41.6003585,13.9168673 C41.79579,14.0738845 42.0235466,14.1854853 42.267209,14.2436241 C42.4672642,14.2436241 42.6932524,14.0839588 42.9488785,13.7646284 C43.1859156,13.5101296 43.3262188,13.1802593 43.3452841,12.832629 C43.3399761,12.5594716 43.3201897,12.2867899 43.2860085,12.0157371 C43.2452565,11.6852672 43.1822762,11.2731081 43.1007722,10.8015387 C42.9340596,9.77299754 42.7599375,8.82985872 42.5895201,7.98697482 C42.4191028,7.14409091 42.2597996,6.47943796 42.1227248,5.99301597 C42.0572027,5.69787787 41.9310294,5.41966558 41.7522523,5.17612408 C41.5806006,5.03343185 41.3592447,4.96527036 41.1372679,4.98675369 L41.1150395,4.98675369 C41.0390052,4.99834085 40.9622509,5.00454479 40.8853466,5.00531941 Z" id="Path" fill="#FFFFFF" fill-rule="nonzero"></path>
                <path d="M52.0587976,10.2594195 C51.6149242,10.8902742 51.0806328,11.4520546 50.4731752,11.9266216 C50.0809157,12.268916 49.5879415,12.4735937 49.0690844,12.5095854 C48.7669616,12.5222257 48.4735937,12.4062303 48.2614543,12.1902549 C48.0553959,11.9536972 47.9491234,11.6461379 47.9650763,11.3325184 C47.9673452,11.1905537 47.9809729,11.0490002 48.0058283,10.9092199 C48.0331132,10.7352105 48.07022,10.5628915 48.11697,10.3930928 L49.6433168,4.65257064 L48.0206472,4.65257064 L48.1725409,4.15872236 C48.8651848,4.01565178 49.5056856,3.68568614 50.0249035,3.2044441 C50.6363595,2.62020234 51.1349706,1.92786142 51.4956794,1.16221437 L52.0476834,1.16221437 L51.325262,4.04361486 L52.8071521,4.04361486 L52.658963,4.65257064 L51.1252068,4.65257064 L49.6433168,10.1962961 C49.6099743,10.322543 49.5840412,10.4339373 49.5655176,10.5341923 C49.5469939,10.6344472 49.5395845,10.7309889 49.5395845,10.808965 C49.530051,10.9611687 49.5761446,11.1116434 49.6692499,11.2322635 C49.7627742,11.3367829 49.9002904,11.3905362 50.0397224,11.3770762 C50.3010518,11.3477634 50.5450047,11.2313936 50.732506,11.0466063 C51.1028092,10.7166225 51.4425595,10.35373 51.7476007,9.96236794 L52.0587976,10.2594195 Z" id="Path" fill="#FFFFFF" fill-rule="nonzero"></path>
                <path d="M53.5740302,8.36942875 C54.6419818,8.35546576 55.6834946,8.03456935 56.5748575,7.44485565 C57.389897,6.87303133 57.7900074,6.23437039 57.7900074,5.50659398 C57.8042587,5.30504227 57.7329551,5.10682617 57.5936569,4.96076167 C57.4311219,4.82893161 57.2240825,4.7650824 57.0157198,4.78253071 C56.2437082,4.80268905 55.5154351,5.14610549 55.0077588,5.72938268 C54.3292999,6.48410804 53.8380827,7.38862781 53.5740302,8.36942875 L53.5740302,8.36942875 Z M53.4332506,8.97838452 C53.3812935,9.17371986 53.3416976,9.37214925 53.3146994,9.57248771 C53.2905614,9.74223024 53.2781826,9.91344462 53.2776521,10.0849017 C53.2372323,10.4915637 53.3756606,10.8956873 53.6567774,11.1917091 C53.9378942,11.4877309 54.3337783,11.6462493 54.7410186,11.6258569 C55.3052535,11.5765337 55.8510831,11.4001004 56.3377551,11.1097297 C57.0579935,10.7246713 57.7338389,10.261462 58.3531256,9.7284398 L58.7458264,10.2928378 C57.9925011,10.9677153 57.1497301,11.5350047 56.2414322,11.9786057 C55.5244287,12.3292949 54.7385728,12.5157415 53.9407979,12.524438 C53.3088452,12.5538554 52.6926195,12.3215742 52.2366244,11.8820639 C51.8039007,11.3904686 51.5839832,10.7465828 51.6253447,10.092328 C51.6327468,9.31657185 51.7952523,8.55017631 52.1032543,7.83844902 C52.4118559,7.08994561 52.8523277,6.40320991 53.4036128,5.81107187 C53.9004911,5.27329395 54.4936286,4.83372728 55.1522431,4.51518428 C55.7640275,4.23096509 56.4303228,4.08397095 57.1046332,4.08445946 C57.6233965,4.05517307 58.1370776,4.20021923 58.5642949,4.49661855 C58.9167552,4.75588516 59.1190923,5.17259117 59.1051848,5.61056204 C59.1051848,6.46829853 58.5791138,7.21835381 57.5343813,7.83844902 C56.2732877,8.53020209 54.86969,8.92034104 53.4332506,8.97838452 L53.4332506,8.97838452 Z" id="Shape" fill="#FFFFFF" fill-rule="nonzero"></path>
                <path d="M65.0809064,9.09720516 L65.0586781,10.1851566 C64.5711021,10.8944512 63.9399515,11.4928766 63.2063155,11.9414742 C62.5489059,12.32613 61.8002655,12.5262211 61.0390513,12.5207248 C60.2551651,12.5516507 59.4943518,12.2512144 58.9421769,11.6926935 C58.4013368,11.1033238 58.1208062,10.3200695 58.1641846,9.52050369 C58.1721161,8.8201103 58.3273912,8.12927388 58.6198658,7.49312654 C58.9202279,6.80077971 59.3474825,6.17103613 59.8794723,5.63655405 C60.353677,5.15300169 60.9157786,4.76481208 61.5354845,4.49290541 C62.1171666,4.22697995 62.7485198,4.08776657 63.387847,4.08445946 C63.9548133,4.05580416 64.5159364,4.21072408 64.9882883,4.52632371 C65.3686641,4.79055861 65.5913167,5.22850751 65.5810443,5.69225123 C65.5837573,5.9714408 65.4727013,6.23965381 65.2735521,6.43488022 C65.0808162,6.63749416 64.8118455,6.74937068 64.5326071,6.74307125 C64.3229335,6.75450206 64.1182673,6.67622825 63.9694889,6.52770885 C63.8243818,6.3766178 63.7468161,6.17288007 63.7546148,5.96331081 C63.7643393,5.76232561 63.8242067,5.56699531 63.9287369,5.39519963 C64.0068158,5.27164788 64.0643698,5.13621389 64.0991543,4.99417998 C64.0942394,4.88415324 64.0242499,4.78769896 63.9213274,4.74911241 C63.7718946,4.67977612 63.6078753,4.64791718 63.4434179,4.65628378 C62.9980185,4.66522023 62.5631145,4.79342388 62.1838114,5.02759828 C61.7496242,5.29097345 61.3718643,5.63804038 61.0723938,6.04871314 C60.6908984,6.55551 60.3862851,7.11607119 60.1684409,7.71220209 C59.9669169,8.2630845 59.8616434,8.84466109 59.857244,9.43138821 C59.8266918,9.98287678 60.0083505,10.5251043 60.3647913,10.9463514 C60.7155822,11.3422775 61.2183539,11.5692416 61.7466538,11.5701597 C62.2322489,11.5385036 62.6999141,11.3741277 63.0988785,11.0948771 C63.8942423,10.5784082 64.5700642,9.89725213 65.0809064,9.09720516 L65.0809064,9.09720516 Z" id="Path" fill="#FFFFFF" fill-rule="nonzero"></path>
                <path d="M64.0695165,12.5281511 L67.1036863,2.04965602 C67.122046,1.98533825 67.1344476,1.91946032 67.1407336,1.85285934 C67.145888,1.7910814 67.145888,1.72898002 67.1407336,1.66720209 C67.151284,1.52786868 67.0981322,1.39127238 66.9962493,1.29588759 C66.7322074,1.20477218 66.4519354,1.17060757 66.1738003,1.19563268 L65.4995404,1.19563268 L65.6069774,0.720350123 C66.1303499,0.69938459 66.6515664,0.641064276 67.1666667,0.54583231 C67.6334648,0.45041715 68.0918566,0.317553908 68.537415,0.148525799 L69.0857143,0.148525799 L66.9814304,7.38544533 C67.8869821,6.47773831 68.8797222,5.6618413 69.9452105,4.94962224 C70.8454587,4.37408477 71.5604707,4.08445946 72.0976558,4.08445946 C72.3222345,4.06565724 72.545338,4.13487002 72.7200496,4.277543 C72.8665335,4.44206981 72.9400721,4.65916668 72.9238095,4.87907248 C72.9207626,4.98170408 72.9071056,5.08374238 72.8830575,5.18355037 C72.8608292,5.3097973 72.8274867,5.44347052 72.7867347,5.59199631 L71.2566832,10.5193397 C71.2307501,10.6158814 71.2048171,10.7235627 71.1825887,10.834957 C71.1635284,10.94659 71.153616,11.0595993 71.1529509,11.1728532 C71.1563888,11.2381514 71.1873695,11.2989037 71.2381596,11.3399447 C71.2937305,11.3882156 71.3604155,11.4736179 71.43451,11.4736179 C71.667231,11.4097909 71.8808829,11.2899759 72.0569038,11.1245823 C72.3622322,10.88887 72.6416606,10.6212538 72.890467,10.3262561 L73.2016639,10.5824631 C72.7622319,11.1280708 72.2498629,11.6103674 71.6790219,12.0157371 C71.2873686,12.3121107 70.8167464,12.4852798 70.3267972,12.5132985 C70.0977453,12.5262864 69.8712737,12.4593714 69.6858798,12.3239281 C69.5315951,12.2000521 69.4461306,12.0093923 69.4561868,11.8115141 C69.4548675,11.7268056 69.4623168,11.6421884 69.4784151,11.5590203 C69.4991182,11.4615792 69.5276131,11.3659664 69.5636238,11.2731081 L71.1307226,6.17496007 C71.1554207,6.06356572 71.1739444,5.97816339 71.1862934,5.91875307 C71.1914482,5.86565671 71.1914482,5.8121842 71.1862934,5.75908784 C71.1935466,5.64721015 71.1499766,5.53803757 71.0677422,5.46203624 C70.9739311,5.38900865 70.8565031,5.35330345 70.7380217,5.36178133 C70.379769,5.41184482 70.0397157,5.55098357 69.7488601,5.76651413 C69.2127441,6.10901223 68.7048128,6.49393066 68.2299228,6.91758907 C67.8182765,7.25273475 67.4387477,7.62566749 67.0962769,8.03153256 C66.8671432,8.32160167 66.6903608,8.6495809 66.5739106,9.00066339 L65.5736349,12.5281511 C65.4550837,12.5095854 65.032745,12.4984459 64.9104891,12.4910197 C64.7882331,12.4835934 64.9660599,12.4910197 64.8400993,12.4910197 C64.7141386,12.4910197 64.5844732,12.4910197 64.4696268,12.4910197 C64.3547803,12.4910197 64.1991818,12.5095854 64.0695165,12.5281511 Z" id="Path" fill="#FFFFFF" fill-rule="nonzero"></path>
                <path d="M46.0497334,15.4095516 L46.0497334,15.546938 C46.0481352,15.6137641 46.0581644,15.6803585 46.0793712,15.7437346 C46.1238279,15.907113 46.2646075,15.9888022 46.5017099,15.9888022 C46.5844372,15.9902239 46.6668947,15.9789541 46.7462217,15.9553839 C46.9028991,15.9147273 47.0086445,15.7682176 46.998143,15.6063483 C47.0026748,15.4867007 46.9415526,15.3741511 46.8388399,15.3130098 C46.7514672,15.2585294 46.6597754,15.2113375 46.5646902,15.1719103 L46.2497886,15.034524 C46.1405108,14.9839493 46.0363049,14.9230244 45.9385917,14.8525799 C45.7681519,14.7460792 45.6677582,14.5561731 45.6755562,14.3550184 C45.662702,14.1429651 45.7780772,13.9438932 45.9682295,13.8500307 C46.1551002,13.7643958 46.3593496,13.7237074 46.5646902,13.7312101 C46.7981116,13.7116396 47.0313993,13.7704206 47.227836,13.8983016 C47.3539295,14.0415459 47.4120207,14.232464 47.3871392,14.421855 L47.3871392,14.4812654 L46.9536863,14.4812654 L46.9536863,14.421855 L46.9536863,14.2956081 C46.9277533,14.1025246 46.7980879,14.0096959 46.5832138,14.0171222 C46.2868358,14.0171222 46.1423515,14.1285166 46.1386468,14.3513053 C46.1386468,14.4961179 46.2312649,14.6112254 46.4127965,14.7003409 C46.5276429,14.7560381 46.6536036,14.8117353 46.783269,14.8711456 C46.9109854,14.9154215 47.0348868,14.9700621 47.1537415,15.034524 C47.3408193,15.1562377 47.4438945,15.3729006 47.4204817,15.5952088 C47.4204817,16.0407862 47.1055801,16.2635749 46.4905957,16.2635749 C46.2794962,16.2794199 46.0680967,16.2370439 45.8793161,16.1410412 C45.7192634,16.0520832 45.6168408,15.8861471 45.6088711,15.70289 L45.6088711,15.5060934 L45.6088711,15.4095516 L46.0497334,15.4095516 Z" id="Path" fill="#FFFFFF" fill-rule="nonzero"></path>
                <path d="M47.7279739,14.574094 C47.7211827,14.424437 47.7412598,14.2747739 47.7872495,14.1322297 C47.8553707,13.9752432 47.9921628,13.8587056 48.157722,13.8166124 C48.4593275,13.72262 48.7822978,13.72262 49.0839033,13.8166124 C49.2489397,13.8597167 49.3853432,13.9759231 49.4543758,14.1322297 C49.5004202,14.2748256 49.5217225,14.4242802 49.5173561,14.574094 L49.5173561,15.3909859 C49.5175002,15.5153566 49.5075885,15.6395345 49.4877183,15.7623004 C49.4395569,16.085344 49.1505883,16.2487224 48.6245174,16.2487224 C48.3461788,16.2850217 48.0653884,16.2028823 47.8502298,16.0222205 C47.7299001,15.8297011 47.678915,15.6017119 47.7057455,15.3761333 L47.7279739,14.574094 Z M48.1651315,15.3909859 C48.1554711,15.526257 48.1705371,15.6621591 48.2095882,15.7920055 C48.2473507,15.859097 48.3077902,15.9104557 48.3800055,15.9368182 C48.4598179,15.970367 48.545383,15.9880234 48.6319268,15.9888022 C48.7107881,15.990569 48.7891113,15.9753752 48.8616198,15.9442445 C48.9874127,15.9075686 49.0774097,15.7966651 49.087608,15.6657586 C49.087608,15.5877826 49.087608,15.4986671 49.087608,15.3909859 L49.087608,14.5703808 C49.0979803,14.4432757 49.0763239,14.3155958 49.0246277,14.1990663 C48.9300924,14.0718262 48.7738743,14.0063502 48.6171079,14.0282617 C48.5429332,14.0276008 48.4691339,14.038884 48.3985291,14.06168 C48.2663747,14.0969306 48.1702163,14.2111002 48.157722,14.3475921 C48.151852,14.4229781 48.151852,14.498708 48.157722,14.574094 L48.1651315,15.3909859 Z" id="Shape" fill="#FFFFFF" fill-rule="nonzero"></path>
                <path d="M49.9322853,13.7831941 L50.3842618,13.7831941 L50.3842618,15.4169779 L50.3842618,15.6323403 C50.3990807,15.8798833 50.543565,16.0036548 50.8177147,16.0036548 C51.0918643,16.0036548 51.243758,15.8922604 51.2696911,15.6694717 C51.2752199,15.5903549 51.2752199,15.5109473 51.2696911,15.4318305 L51.2696911,13.7980467 L51.7068487,13.7980467 L51.7068487,15.4578225 C51.7068487,15.5914957 51.7068487,15.6954638 51.7068487,15.7734398 C51.6941919,15.8818839 51.642883,15.9820977 51.5623644,16.0556388 C51.1132513,16.3540025 50.5295874,16.3540025 50.0804744,16.0556388 C50.0020858,15.9779276 49.9524346,15.8757802 49.9396948,15.7660135 C49.9396948,15.6991769 49.9396948,15.5952088 49.9396948,15.4503962 L49.9322853,13.7831941 Z" id="Path" fill="#FFFFFF" fill-rule="nonzero"></path>
                <path d="M52.847904,13.7831941 L53.1072348,13.7831941 C53.200319,13.7826188 53.2932801,13.7900726 53.3850892,13.805473 C53.5281793,13.8167357 53.660705,13.8853127 53.7527281,13.9957119 C53.8447513,14.1061112 53.8885078,14.2490183 53.8741129,14.3921499 C53.8836826,14.5409354 53.8374364,14.6879353 53.7444475,14.804309 C53.609356,14.9153396 53.4411853,14.978057 53.266538,14.9825399 L53.266538,14.9825399 C53.3749292,14.990345 53.4819424,15.0115468 53.5851443,15.0456634 C53.6746988,15.0847671 53.7396586,15.1651124 53.7592664,15.2610258 C53.7744792,15.3357286 53.7843833,15.4114194 53.7889042,15.4875276 L53.8074278,15.7734398 C53.8117051,15.8608238 53.8228539,15.9477335 53.8407704,16.03336 C53.8596821,16.1000412 53.8819387,16.1657237 53.9074554,16.2301566 L53.4517742,16.2301566 L53.4073175,16.0742045 C53.3948058,16.0180542 53.3873662,15.9608883 53.3850892,15.9033999 L53.3850892,15.6843243 L53.3850892,15.4541093 C53.3827378,15.2998616 53.2730739,15.1682754 53.1220537,15.138492 C53.0461242,15.1260227 52.9693026,15.1198134 52.8923607,15.1199263 L52.592278,15.1199263 L52.592278,16.2338698 L52.1551204,16.2338698 L52.1551204,13.7831941 L52.847904,13.7831941 Z M52.5589355,14.0579668 L52.5589355,14.8525799 L52.8701324,14.8525799 C52.9502743,14.8589828 53.0307976,14.8589828 53.1109395,14.8525799 C53.2216203,14.8460615 53.3235705,14.790202 53.3887939,14.7003409 C53.4275358,14.6155474 53.4441097,14.5222667 53.4369553,14.4292813 C53.449034,14.314794 53.3923116,14.2040068 53.292471,14.1470823 C53.1657951,14.0952076 53.0288111,14.0735963 52.8923607,14.0839588 L52.5589355,14.0579668 Z" id="Shape" fill="#FFFFFF" fill-rule="nonzero"></path>
                <path d="M55.5116014,14.4292813 L55.5116014,14.3141738 C55.5116014,14.1186149 55.3881106,14.0220731 55.1411289,14.0245485 C54.9299596,14.0245485 54.7965894,14.0765326 54.7336091,14.1767875 C54.7016999,14.2215683 54.6824956,14.2741794 54.6780382,14.3290264 L54.6780382,15.4949539 C54.6678767,15.6101304 54.6856717,15.726061 54.7299044,15.8328501 C54.8192313,15.9441552 54.9585426,16.0027989 55.1003769,15.9888022 C55.1908466,15.9970325 55.2808512,15.9687248 55.350409,15.9101634 C55.4199669,15.851602 55.4633221,15.767633 55.4708494,15.676898 L55.489373,15.5209459 L55.489373,15.4355436 L55.9413495,15.4355436 L55.9413495,15.6731849 C55.9365188,15.8350244 55.8638964,15.9873388 55.7412944,16.0927703 C55.6685011,16.1542855 55.5821496,16.1975594 55.489373,16.2190172 C55.3681922,16.2491483 55.2437535,16.2641149 55.1189005,16.2635749 C55.0069777,16.2669286 54.8950532,16.2569571 54.7854753,16.2338698 C54.622902,16.2162005 54.4741703,16.1339814 54.3725264,16.0055912 C54.2708825,15.877201 54.2248021,15.7133452 54.2445854,15.5506511 L54.2445854,14.574094 C54.2421921,14.4745841 54.2496379,14.3750813 54.2668138,14.2770424 C54.2764292,14.1759029 54.3164805,14.0800793 54.3816602,14.0022697 C54.5804887,13.8142113 54.8503782,13.7208878 55.1226053,13.7460627 C55.6165686,13.7460627 55.8870135,13.8983016 55.9339401,14.2027795 C55.9379478,14.267078 55.9379478,14.3315645 55.9339401,14.395863 L55.9339401,14.4812654 L55.4967825,14.4812654 L55.5116014,14.4292813 Z" id="Path" fill="#FFFFFF" fill-rule="nonzero"></path>
                <polygon id="Path" fill="#FFFFFF" fill-rule="nonzero" points="56.311822 13.7831941 57.7381412 13.7831941 57.7381412 14.0579668 56.7489796 14.0579668 56.7489796 14.8525799 57.6751609 14.8525799 57.6751609 15.1273526 56.7489796 15.1273526 56.7489796 15.9665233 57.7937121 15.9665233 57.7937121 16.2450092 56.311822 16.2450092"></polygon>
                <path d="M58.9051296,14.574094 C58.9002784,14.4245292 58.9203109,14.2751987 58.9644052,14.1322297 C59.0334379,13.9759231 59.1698413,13.8597167 59.3348777,13.8166124 C59.48474,13.7695275 59.6409157,13.7457349 59.7979684,13.7460593 C59.9549362,13.7468493 60.1109473,13.7706169 60.261059,13.8166124 C60.4250891,13.8616408 60.5607663,13.9772285 60.6315315,14.1322297 C60.6759686,14.2751228 60.696009,14.4245116 60.6908071,14.574094 L60.6908071,15.3909859 C60.6920169,15.5152513 60.6833451,15.6394157 60.6648741,15.7623004 C60.6167126,16.085344 60.3277441,16.2487224 59.7979684,16.2487224 C59.5207811,16.2848776 59.2411862,16.2026946 59.0273855,16.0222205 C58.9074052,15.8294804 58.8552381,15.602038 58.8791965,15.3761333 L58.9051296,14.574094 Z M59.3422872,15.3909859 C59.3333131,15.526498 59.3496464,15.6624987 59.3904486,15.7920055 C59.4275408,15.858227 59.4864887,15.9094313 59.5571612,15.9368182 C59.6381536,15.9707493 59.7250051,15.9884114 59.8127873,15.9888022 C59.8904551,15.9906192 59.9675817,15.9754122 60.0387755,15.9442445 C60.1648205,15.9070225 60.2557012,15.7968363 60.2684685,15.6657586 C60.2684685,15.5877826 60.2684685,15.4986671 60.2684685,15.3909859 L60.2684685,14.5703808 C60.280702,14.4432015 60.2589656,14.3150494 60.2054881,14.1990663 C60.113201,14.0711034 59.9575269,14.0052568 59.8016731,14.0282617 C59.7262841,14.0275858 59.6512629,14.0388646 59.5793896,14.06168 C59.4480756,14.0972852 59.3532029,14.2116882 59.3422872,14.3475921 C59.3381293,14.4230352 59.3381293,14.4986509 59.3422872,14.574094 L59.3422872,15.3909859 Z" id="Shape" fill="#FFFFFF" fill-rule="nonzero"></path>
                <polygon id="Path" fill="#FFFFFF" fill-rule="nonzero" points="62.5061224 13.7831941 62.5061224 14.0579668 61.5540081 14.0579668 61.5540081 14.830301 62.4690752 14.830301 62.4690752 15.1050737 61.5540081 15.1050737 61.5540081 16.2190172 61.1279647 16.2190172 61.1279647 13.7831941"></polygon>
                <path d="M63.95467,15.4095516 L63.95467,15.546938 C63.9536561,15.6134555 63.9623937,15.6797618 63.9806031,15.7437346 C64.0250598,15.907113 64.169544,15.9888022 64.4066464,15.9888022 C64.4893398,15.9896666 64.571715,15.9784081 64.6511583,15.9553839 C64.8078357,15.9147273 64.9135811,15.7682176 64.9030796,15.6063483 C64.9060438,15.4861253 64.8436128,15.3737786 64.7400717,15.3130098 C64.6540132,15.2584891 64.5635485,15.2112909 64.4696268,15.1719103 L64.1510204,15.034524 C64.0414108,14.9880985 63.9360452,14.9321899 63.8361188,14.8674324 C63.6676759,14.7594812 63.5689731,14.5701065 63.576788,14.369871 C63.5639339,14.1578177 63.679309,13.9587458 63.8694613,13.8648833 C64.0543695,13.7766004 64.2574694,13.7333436 64.4622173,13.7386364 C64.6968508,13.7185119 64.9314871,13.7773043 65.1290678,13.9057279 C65.2551613,14.0489722 65.3132526,14.2398903 65.288371,14.4292813 L65.288371,14.4812654 L64.8512135,14.4812654 L64.8512135,14.421855 L64.8512135,14.2956081 C64.8265153,14.1025246 64.6968499,14.0096959 64.4622173,14.0171222 C64.169544,14.0171222 64.0250598,14.1285166 64.0176503,14.3513053 C64.0176503,14.4961179 64.1102684,14.6112254 64.2955047,14.7003409 C64.4066464,14.7560381 64.5363118,14.8117353 64.6659772,14.8711456 C64.7933715,14.9162408 64.91721,14.9708536 65.0364497,15.034524 C65.2382161,15.1435411 65.3604083,15.3582237 65.3513514,15.5877826 C65.3513514,16.03336 65.0364497,16.2561486 64.4214653,16.2561486 C64.2103659,16.2719936 63.9989663,16.2296176 63.8101857,16.1336149 C63.6502159,16.0439961 63.5468674,15.8788226 63.536036,15.6954638 L63.536036,15.4095516 L63.95467,15.4095516 Z" id="Path" fill="#FFFFFF" fill-rule="nonzero"></path>
                <path d="M65.6477294,13.7831941 L66.0811822,13.7831941 L66.0811822,15.6397666 C66.0811822,15.8774079 66.2441901,16.0110811 66.5183398,16.0110811 C66.7924894,16.0110811 66.9443832,15.8996867 66.9703162,15.676898 C66.9703162,15.598922 66.9703162,15.5172328 66.9703162,15.4392568 L66.9703162,13.805473 L67.4259974,13.805473 L67.4259974,15.4652488 C67.4252408,15.5707038 67.419058,15.6760495 67.4074738,15.7808661 C67.3978474,15.8893928 67.3475429,15.9902305 67.2666942,16.0630651 C67.0569,16.2289362 66.7919966,16.3085878 66.5257492,16.2858538 C66.2602209,16.313388 65.9944378,16.2361358 65.7848042,16.0704914 C65.7051475,15.9936983 65.6552614,15.8910677 65.6440246,15.7808661 C65.6440246,15.7140295 65.6440246,15.6100614 65.6440246,15.4652488 L65.6477294,13.7831941 Z" id="Path" fill="#FFFFFF" fill-rule="nonzero"></path>
                <path d="M69.1227615,14.4292813 L69.1227615,14.3141738 C69.1227615,14.1173771 68.9893914,14.0208354 68.752289,14.0245485 C68.6004904,14.0020436 68.4478438,14.0595916 68.348474,14.1767875 C68.3155669,14.2213517 68.295106,14.2739018 68.2891984,14.3290264 L68.2891984,15.4949539 C68.2812045,15.610387 68.3002341,15.7260953 68.3447693,15.8328501 C68.4336713,15.9447193 68.5733031,16.0034979 68.7152418,15.9888022 C68.8090748,16.0024415 68.9043687,15.9767216 68.9786793,15.9177001 C69.05299,15.8586786 69.0997487,15.7715727 69.1079426,15.676898 L69.1264663,15.5209459 L69.1264663,15.4355436 L69.5636238,15.4355436 L69.5636238,15.5209459 L69.5636238,15.6731849 C69.5616062,15.834882 69.4900312,15.9878322 69.3672734,16.0927703 C69.2944802,16.1542855 69.2081287,16.1975594 69.1153521,16.2190172 C68.9941374,16.2489626 68.8697216,16.2639264 68.7448796,16.2635749 C68.6329475,16.2672516 68.5209845,16.2572767 68.4114543,16.2338698 C68.248881,16.2162005 68.1001493,16.1339814 67.9985054,16.0055912 C67.8968616,15.877201 67.8507811,15.7133452 67.8705644,15.5506511 L67.8705644,14.574094 C67.8608794,14.4753147 67.8608794,14.3758217 67.8705644,14.2770424 C67.881464,14.1755472 67.9227977,14.0797457 67.9891156,14.0022697 C68.1871683,13.8129306 68.4576564,13.7194001 68.7300607,13.7460627 C69.2301986,13.7460627 69.5043482,13.9020147 69.5413955,14.2027795 C69.5413955,14.2621898 69.5413955,14.3253133 69.5413955,14.395863 L69.5413955,14.4812654 L69.1042379,14.4812654 L69.1227615,14.4292813 Z" id="Path" fill="#FFFFFF" fill-rule="nonzero"></path>
                <path d="M71.2270454,14.4292813 L71.2270454,14.3141738 C71.2270454,14.1173771 71.09738,14.0208354 70.8565729,14.0245485 C70.7047743,14.0020436 70.5521276,14.0595916 70.4527579,14.1767875 C70.4177952,14.2198921 70.3982326,14.2734849 70.397187,14.3290264 L70.397187,14.5295362 L70.397187,15.4949539 C70.3891931,15.610387 70.4082227,15.7260953 70.4527579,15.8328501 C70.5416599,15.9447193 70.6812917,16.0034979 70.8232304,15.9888022 C70.9170634,16.0024415 71.0123573,15.9767216 71.0866679,15.9177001 C71.1609786,15.8586786 71.2077373,15.7715727 71.2159312,15.676898 L71.2159312,15.5209459 L71.2159312,15.4355436 L71.6493841,15.4355436 L71.6493841,15.6731849 C71.6473665,15.834882 71.5757914,15.9878322 71.4530336,16.0927703 C71.3802404,16.1542855 71.2938889,16.1975594 71.2011123,16.2190172 C71.0798976,16.2489626 70.9554819,16.2639264 70.8306398,16.2635749 C70.7187077,16.2672516 70.6067447,16.2572767 70.4972146,16.2338698 C70.3346413,16.2162005 70.1859096,16.1339814 70.0842657,16.0055912 C69.9826218,15.877201 69.9365413,15.7133452 69.9563247,15.5506511 L69.9563247,14.574094 C69.9466396,14.4753147 69.9466396,14.3758217 69.9563247,14.2770424 C69.9672243,14.1755472 70.008558,14.0797457 70.0748759,14.0022697 C70.2731899,13.8133612 70.5434758,13.7199006 70.8158209,13.7460627 C71.3097843,13.7460627 71.5802292,13.8983016 71.6271557,14.2027795 C71.6271557,14.2621898 71.6271557,14.3253133 71.6271557,14.395863 L71.6271557,14.4812654 L71.1937029,14.4812654 L71.2270454,14.4292813 Z" id="Path" fill="#FFFFFF" fill-rule="nonzero"></path>
                <polygon id="Path" fill="#FFFFFF" fill-rule="nonzero" points="72.0420849 13.7831941 73.4646994 13.7831941 73.4646994 14.0579668 72.4792425 14.0579668 72.4792425 14.8525799 73.4054238 14.8525799 73.4054238 15.1273526 72.4792425 15.1273526 72.4792425 15.9665233 73.4943372 15.9665233 73.4943372 16.2450092 72.0420849 16.2450092"></polygon>
                <path d="M74.1352546,15.4095516 L74.1352546,15.546938 C74.1324615,15.6135471 74.1412364,15.6801363 74.1611877,15.7437346 C74.2056444,15.907113 74.346424,15.9888022 74.5872311,15.9888022 C74.6706131,15.9936626 74.7542541,15.9861553 74.8354477,15.9665233 C74.9912554,15.9245959 75.0963941,15.7789269 75.087369,15.6174877 C75.0887791,15.4976541 75.0267537,15.3860373 74.9243611,15.3241493 C74.8378758,15.2703762 74.7474717,15.2232096 74.6539162,15.1830498 L74.3353098,15.0456634 C74.2253254,15.0000327 74.1198895,14.9440868 74.0204082,14.8785719 C73.8519652,14.7706206 73.7532625,14.5812459 73.7610774,14.3810104 C73.7472039,14.1687162 73.8628846,13.9691171 74.0537507,13.8760227 C74.2392801,13.7902968 74.442352,13.7495901 74.6465067,13.7572021 C74.8799745,13.7370574 75.1134459,13.7958847 75.3096525,13.9242936 C75.4370776,14.0669134 75.4965422,14.2579037 75.4726604,14.4478471 L75.4726604,14.4812654 L75.0355028,14.4812654 L75.0355028,14.421855 L75.0355028,14.2956081 C75.0095698,14.1025246 74.8761997,14.0096959 74.6650303,14.0171222 C74.3711221,14.0171222 74.2229331,14.1285166 74.2204633,14.3513053 C74.2204633,14.4961179 74.3130814,14.6112254 74.494613,14.7003409 C74.6094595,14.7560381 74.7391248,14.8117353 74.8836091,14.8711456 C75.0038316,14.9162581 75.1202807,14.9708901 75.2318533,15.034524 C75.4357017,15.1418457 75.5597096,15.3571849 75.5504596,15.5877826 C75.5504596,16.03336 75.235558,16.2561486 74.6168689,16.2561486 C74.4069553,16.2720725 74.1967255,16.229674 74.009294,16.1336149 C73.8483243,16.0450541 73.74459,15.879264 73.7351443,15.6954638 L73.7351443,15.4986671 L73.7351443,15.4095516 L74.1352546,15.4095516 Z" id="Path" fill="#FFFFFF" fill-rule="nonzero"></path>
                <path d="M76.1543298,15.4095516 L76.1543298,15.546938 C76.153316,15.6134555 76.1620536,15.6797618 76.1802629,15.7437346 C76.2247196,15.907113 76.3654992,15.9888022 76.6063063,15.9888022 C76.6878014,15.9899616 76.7689986,15.9786934 76.8471134,15.9553839 C77.0052713,15.9162247 77.1128646,15.7693152 77.1027395,15.6063483 C77.1057037,15.4861253 77.0432727,15.3737786 76.9397316,15.3130098 C76.8536731,15.2584891 76.7632084,15.2112909 76.6692866,15.1719103 L76.3506803,15.034524 C76.2406959,14.9888932 76.13526,14.9329474 76.0357786,14.8674324 C75.8661674,14.7605581 75.7670837,14.5704525 75.7764479,14.369871 C75.7625744,14.1575768 75.8782551,13.9579777 76.0691212,13.8648833 C76.2546506,13.7791573 76.4577225,13.7384506 76.6618772,13.7460627 C76.895345,13.725918 77.1288163,13.7847453 77.325023,13.9131542 C77.452448,14.0557739 77.5119127,14.2467642 77.4880309,14.4367076 L77.4880309,14.4812654 L77.0582828,14.4812654 L77.0582828,14.421855 L77.0582828,14.2956081 C77.0311148,14.1025246 76.9014494,14.0096959 76.6692866,14.0171222 C76.3778483,14.0171222 76.2296593,14.1285166 76.2247196,14.3513053 C76.2247196,14.4961179 76.3173377,14.6112254 76.502574,14.7003409 C76.6137158,14.7560381 76.7433811,14.8117353 76.8730465,14.8711456 C76.993269,14.9162581 77.1097181,14.9708901 77.2212907,15.034524 C77.427647,15.1429988 77.5520836,15.3619829 77.539897,15.5952088 C77.539897,16.0407862 77.2249954,16.2635749 76.6063063,16.2635749 C76.3964284,16.2789244 76.1863516,16.2365568 75.9987314,16.1410412 C75.8377617,16.0524804 75.7340274,15.8866903 75.7245817,15.70289 L75.7245817,15.5060934 L75.7245817,15.4095516 L76.1543298,15.4095516 Z" id="Path" fill="#FFFFFF" fill-rule="nonzero"></path>
            </g>
        </g>
    </g>
</svg>